Coordinates
version=1
nRows=13
nColumns=40
inDegrees=yes

Units are S.I. units (second, meters, Newtons, ...)
Angles are in degrees.

endheader
time	pelvis_tilt	pelvis_list	pelvis_rotation	pelvis_tx	pelvis_ty	pelvis_tz	hip_flexion_r	hip_adduction_r	hip_rotation_r	knee_angle_r	knee_angle_r_beta	ankle_angle_r	subtalar_angle_r	mtp_angle_r	hip_flexion_l	hip_adduction_l	hip_rotation_l	knee_angle_l	knee_angle_l_beta	ankle_angle_l	subtalar_angle_l	mtp_angle_l	lumbar_extension	lumbar_bending	lumbar_rotation	arm_flex_r	arm_add_r	arm_rot_r	elbow_flex_r	pro_sup_r	wrist_flex_r	wrist_dev_r	arm_flex_l	arm_add_l	arm_rot_l	elbow_flex_l	pro_sup_l	wrist_flex_l	wrist_dev_l
     35.43000000	     -5.59410827	     -5.59510167	      2.35546006	      1.04583605	      0.92873439	      0.51893249	     16.61264857	      3.37263127	    -17.21650873	     20.05628330	     20.05628330	     10.01944649	      2.87873256	     -1.67992910	     35.66473949	    -13.75872293	      3.72424394	     71.47163768	     71.47163768	      5.06094697	    -17.29849425	      6.67905459	    -13.60840562	      5.36015056	      3.87219206	      8.39043175	    -17.14737460	     -0.81906355	     50.95613214	     45.60395087	      0.00000000	      0.00000000	      4.43711114	     -8.24359525	     -2.41778760	     41.09564196	     46.11403675	      0.00000000	      0.00000000
     35.44142857	     -5.71678402	     -5.74162582	      2.47208692	      1.04445793	      0.92921427	      0.51921455	     15.92688659	      3.63185412	    -17.38416204	     19.43669496	     19.43669496	     10.19461675	      3.26655770	     -1.69872280	     37.23599782	    -13.72170956	      3.80345119	     70.29084819	     70.29084819	      5.19411338	    -17.33254878	      6.76032221	    -13.61265430	      5.56099938	      3.88289165	     10.46139536	    -17.19038742	     -1.01375026	     52.10682452	     45.58120063	      0.00000000	      0.00000000	      2.79862640	     -8.28714242	     -2.23068244	     39.75588771	     46.07263592	      0.00000000	      0.00000000
     35.45285714	     -5.78333852	     -5.86932504	      2.54958692	      1.04317111	      0.92974070	      0.51950300	     15.14965538	      3.89867947	    -17.51114581	     18.74763566	     18.74763566	     10.35457725	      3.66717678	     -1.73166410	     38.56023595	    -13.68753931	      3.80210024	     68.86829344	     68.86829344	      5.25547787	    -17.35037166	      6.89966363	    -13.66535203	      5.73487156	      3.91282433	     12.53131130	    -17.21932541	     -1.12334958	     53.26714054	     45.55456694	      0.00000000	      0.00000000	      1.23670445	     -8.32837483	     -2.01334150	     38.31507174	     46.02826779	      0.00000000	      0.00000000
     35.46428571	     -5.84876773	     -5.99363276	      2.62461118	      1.04192616	      0.93019603	      0.51972334	     14.36108620	      4.16495349	    -17.61806609	     18.03002742	     18.03002742	     10.50301564	      4.09996204	     -1.79666365	     39.72741753	    -13.62919662	      3.78739303	     67.22140476	     67.22140476	      5.28575720	    -17.34137267	      7.14306204	    -13.72948700	      5.90528026	      3.98144436	     14.58388529	    -17.24704175	     -1.14901393	     54.39895241	     45.52545789	      0.00000000	      0.00000000	     -0.24351553	     -8.35765106	     -1.76130894	     36.79110237	     45.98052264	      0.00000000	      0.00000000
     35.47571429	     -5.91788517	     -6.11148648	      2.65831198	      1.04070429	      0.93053144	      0.51984777	     13.56803720	      4.42591606	    -17.73212740	     17.28466161	     17.28466161	     10.62350182	      4.58542032	     -1.91074087	     40.73758033	    -13.54999881	      3.76647779	     65.34402714	     65.34402714	      5.33873028	    -17.31830087	      7.49630100	    -13.79163903	      6.08944241	      4.07391155	     16.61035572	    -17.29822354	     -1.06057346	     55.51047277	     45.49236411	      0.00000000	      0.00000000	     -1.61722933	     -8.37118266	     -1.44735017	     35.18731271	     45.92689709	      0.00000000	      0.00000000
     35.48714286	     -6.01591615	     -6.21586097	      2.65565068	      1.03951072	      0.93072982	      0.51990600	     12.79392591	      4.67973426	    -17.78114970	     16.51688764	     16.51688764	     10.77625435	      5.06558681	     -2.00158871	     41.61344328	    -13.45396145	      3.73704465	     63.20430512	     63.20430512	      5.33616920	    -17.25298573	      7.92859497	    -13.79480074	      6.21750657	      4.27693523	     18.53661061	    -17.36309679	     -0.99300190	     56.61052627	     45.46042104	      0.00000000	      0.00000000	     -2.95581613	     -8.35605865	     -1.15608563	     33.89772224	     45.87370637	      0.00000000	      0.00000000
     35.49857143	     -6.13412876	     -6.31768502	      2.62523619	      1.03834316	      0.93075911	      0.51976061	     12.01644225	      4.91936125	    -17.84775207	     15.69524327	     15.69524327	     10.91752506	      5.63482686	     -2.09172708	     42.33254745	    -13.33120552	      3.73705992	     60.78874848	     60.78874848	      5.38364772	    -17.13894373	      8.34827026	    -13.79534637	      6.38742084	      4.46335773	     20.45884187	    -17.38375264	     -0.87159865	     57.82356661	     45.42279733	      0.00000000	      0.00000000	     -4.30286108	     -8.34463664	     -0.83125542	     32.73492133	     45.81480334	      0.00000000	      0.00000000
     35.51000000	     -6.27147829	     -6.39985525	      2.56103324	      1.03717486	      0.93064678	      0.51949108	     11.23572088	      5.14137800	    -17.87759287	     14.83698569	     14.83698569	     11.07824936	      6.25698689	     -2.17327588	     42.90329793	    -13.17915956	      3.75646105	     58.09979721	     58.09979721	      5.36856584	    -16.92409839	      8.75178407	    -13.74358839	      6.55879103	      4.67827446	     22.34259702	    -17.41632310	     -0.72800777	     59.13991545	     45.38093304	      0.00000000	      0.00000000	     -5.66977925	     -8.32187090	     -0.49922290	     31.81061533	     45.75199855	      0.00000000	      0.00000000
     35.52142857	     -6.43038807	     -6.52591789	      2.46133284	      1.03610315	      0.93029901	      0.51916708	     10.44771877	      5.41035089	    -17.95964862	     13.93590396	     13.93590396	     11.25555908	      6.96226265	     -2.27646864	     43.32386395	    -13.04612748	      3.88962825	     55.16441658	     55.16441658	      5.46788348	    -16.60010908	      9.02982527	    -13.69640831	      6.71261706	      4.86472354	     24.16168904	    -17.41142889	     -0.46650525	     60.65568067	     45.32793068	      0.00000000	      0.00000000	     -7.04750565	     -8.29854708	     -0.09945599	     31.09908587	     45.67770723	      0.00000000	      0.00000000
     35.53285714	     -6.62928047	     -6.59799797	      2.32117687	      1.03502619	      0.92977981	      0.51871060	      9.72878514	      5.60882967	    -17.94583786	     13.09992643	     13.09992643	     11.47335917	      7.59630235	     -2.34113314	     43.58662487	    -12.88945330	      3.98517888	     51.94505824	     51.94505824	      5.51669964	    -16.10256272	      9.33078036	    -13.57650473	      6.82610888	      5.16538228	     25.88780463	    -17.38651454	     -0.30070406	     62.08942811	     45.28137282	      0.00000000	      0.00000000	     -8.40452466	     -8.27567425	      0.19502262	     30.60168017	     45.61587591	      0.00000000	      0.00000000
     35.54428571	     -6.77217347	     -6.70899760	      2.19013345	      1.03415118	      0.92913963	      0.51812084	      8.82365320	      5.87086804	    -18.01363973	     12.05422570	     12.05422570	     11.69170780	      8.41972152	     -2.39374391	     43.60834826	    -12.74436225	      4.19311003	     48.52407313	     48.52407313	      5.66584743	    -15.48115286	      9.53946630	    -13.50308379	      6.99447069	      5.24673202	     27.65231775	    -17.19686029	      0.01860402	     63.95345986	     45.21524730	      0.00000000	      0.00000000	     -9.87450641	     -8.24605272	      0.57495572	     30.21919831	     45.53872692	      0.00000000	      0.00000000
     35.55571429	     -6.91383913	     -6.85453826	      2.05651635	      1.03336402	      0.92828610	      0.51740506	      7.92445160	      6.15356945	    -18.10567265	     11.03780866	     11.03780866	     11.90913707	      9.30467233	     -2.48157010	     43.47836214	    -12.64300150	      4.44643847	     44.96046440	     44.96046440	      5.82727658	    -14.66442684	      9.71888909	    -13.44009990	      7.23844259	      5.34378591	     29.33004246	    -17.07038100	      0.46883635	     66.03986897	     45.13788253	      0.00000000	      0.00000000	    -11.36212088	     -8.19921884	      1.01952132	     30.06274030	     45.45100233	      0.00000000	      0.00000000
     35.56714286	     -7.06000036	     -7.03078291	      1.89203042	      1.03273165	      0.92714405	      0.51660815	      7.04313467	      6.43861006	    -18.28755850	     10.08382523	     10.08382523	     12.08534464	     10.33817023	     -2.87696795	     43.21174106	    -12.60625129	      4.69989920	     41.34401779	     41.34401779	      5.82246147	    -13.74357316	      9.45276431	    -13.38781689	      7.48933503	      5.77638818	     30.47182665	    -17.72911514	      1.90876436	     69.52613358	     44.99398634	      0.00000000	      0.00000000	    -13.09661733	     -8.49262674	      2.83051639	     31.17740308	     45.17722208	      0.00000000	      0.00000000
